<?xml version="1.0" encoding="iso-8859-1"?>
<!-- Generator: Adobe Illustrator 19.0.0, SVG Export Plug-In . SVG Version: 6.00 Build 0)  -->
<svg version="1.1" id="Layer_1" xmlns="http://www.w3.org/2000/svg" xmlns:xlink="http://www.w3.org/1999/xlink" x="0px" y="0px"
	 viewBox="0 0 512.898 512.898" style="enable-background:new 0 0 512.898 512.898;" xml:space="preserve">
<g transform="translate(1 1)">
	<g>
		<g>
			<path d="M189.428,381.204c-63.775-10.779-96.112-46.709-109.586-118.568c-0.898-4.491-6.288-8.084-10.779-7.186
				s-8.084,6.288-7.186,10.779c14.372,79.944,52.996,120.365,123.958,132.94c0.898,0,0.898,0,1.797,0
				c4.491,0,8.084-2.695,8.982-7.186C197.512,386.593,193.919,382.102,189.428,381.204z"/>
			<path d="M459.8,426.116H350.009c27.869-11.143,49.205-26.988,65.488-46.156c66.575-9.963,96.402-64.935,96.402-115.529
				c0-35.865-19.972-65.809-45.818-71.045c0.002-0.271,0.005-0.543,0.007-0.814c0-4.491-1.797-8.982-5.389-12.575
				c-2.695-3.593-8.084-5.389-12.575-5.389H411.75c-4.156-42.594-37.562-76.642-80.399-80.842
				c-4.491-44.912-43.116-80.842-89.825-80.842c-46.709,0-85.333,35.032-89.825,80.842c-41.998,4.2-76.134,38.248-80.388,80.842
				H34.93c-4.491,0-9.881,1.797-12.575,5.389c-3.593,3.593-5.389,8.084-5.389,12.575c0.696,95.998,17.556,194.15,116.079,233.544
				H22.354C9.779,426.116-1,436.895-1,449.47c0,10.779,7.186,18.863,20.66,21.558l113.179,8.982c4.491,0,9.881,2.695,10.779,4.491
				l0.898,0.898c2.695,5.389,6.288,12.575,17.965,12.575h149.109c11.677,0,15.27-7.186,16.168-12.575l0.898-0.898
				c0.898-1.797,6.288-4.491,10.779-4.491l123.06-8.982h0.898c12.575-2.695,19.761-10.779,19.761-21.558
				C483.154,436.895,473.274,426.116,459.8,426.116z M493.035,264.432c0,35.032-16.168,77.249-61.081,92.519
				c26.947-44.014,32.337-97.909,34.133-144.618C481.358,217.723,493.035,239.281,493.035,264.432z M160.684,111.73
				c5.389,0,8.982-3.593,8.982-8.982c0-39.523,32.337-71.86,71.86-71.86c39.523,0,71.86,32.337,71.86,71.86
				c0,5.39,3.593,8.982,8.982,8.982c35.93,0,66.47,27.846,70.961,62.877H241.526H89.723
				C94.214,139.575,123.856,111.73,160.684,111.73z M34.93,192.572h44.912h161.684h161.684h44.912
				c-0.898,121.263-26.947,233.544-206.596,233.544S35.828,313.835,34.93,192.572z M461.596,453.063l-122.161,8.982
				c-6.288,0.898-19.761,4.491-25.151,14.372l-0.898,0.898c-0.898,0.898-1.797,1.796-1.797,2.695H161.582
				c0-0.898-0.898-1.797-0.898-3.593l-0.898-0.898c-4.491-9.881-18.863-12.575-25.151-13.474l-113.179-8.982
				c-4.491-0.898-4.491-2.695-4.491-3.593c0-2.695,2.695-5.389,5.389-5.389h438.344c2.695,0,5.389,2.695,5.389,5.389
				C466.088,450.368,466.088,452.165,461.596,453.063z"/>
		</g>
	</g>
</g>
<g>
</g>
<g>
</g>
<g>
</g>
<g>
</g>
<g>
</g>
<g>
</g>
<g>
</g>
<g>
</g>
<g>
</g>
<g>
</g>
<g>
</g>
<g>
</g>
<g>
</g>
<g>
</g>
<g>
</g>
</svg>
