<svg height="511pt" viewBox="0 -5 511.99885 511" width="511pt" xmlns="http://www.w3.org/2000/svg"><path d="m497.964844 128.875c-17.363282-26.800781-48.308594-35.613281-77.328125-40.992188-3.585938-35.722656-9.789063-62.121093-14.800781-73.253906-1.574219-3.496094-6.355469-14.128906-16.683594-14.128906h-354.71875c-10.328125 0-15.109375 10.644531-16.691406 14.128906-18.628907 41.40625-54.101563 292.699219 92.003906 457.59375 16.242187 18.324219 39.335937 28.824219 63.367187 28.824219h77.347657c24.035156 0 47.128906-10.5 63.355468-28.824219 15.726563-17.753906 29.238282-36.554687 41.015625-55.941406 3.78125.429688 7.535157.734375 11.230469.734375 59.707031 0 109.0625-55.675781 134.023438-152.945313 16.546874-64.453124 15.875-107.410156-2.121094-135.195312zm-202.402344 327.179688c-11.605469 13.09375-28.042969 20.605468-45.101562 20.605468h-77.347657c-17.058593 0-33.507812-7.511718-45.113281-20.605468-139.023438-156.921876-102.699219-398.386719-88.203125-431.183594h343.980469c14.496094 32.796875 50.808594 274.273437-88.214844 431.183594zm180.90625-198.074219c-16.839844 65.660156-53.613281 132.023437-108.101562 134.328125 49.695312-95.761719 58.5-202.617188 54.207031-279.214844 26.042969 5.402344 44.515625 12.972656 54.90625 29.03125 13.847656 21.363281 13.519531 59.28125-1.011719 115.855469zm0 0"/><path d="m86.875 202.382812c-.71875-6.691406-6.828125-11.546874-13.414062-10.828124-6.691407.71875-11.542969 6.722656-10.824219 13.425781 8.507812 79.703125 39.671875 159.140625 90.125 229.671875 2.378906 3.316406 6.121093 5.097656 9.925781 5.097656 2.449219 0 4.925781-.746094 7.085938-2.28125 5.472656-3.914062 6.742187-11.535156 2.828124-17.019531-48.015624-67.105469-77.65625-142.519531-85.726562-218.066407zm0 0"/><path d="m73.792969 129.984375c.558593.074219 1.109375.109375 1.65625.109375 6.011719 0 11.230469-4.4375 12.070312-10.558594 2.316407-17.140625 5.632813-36.589844 15.730469-50.148437 4.007812-5.414063 2.886719-13.046875-2.523438-17.070313-5.402343-4-13.046874-2.863281-17.058593 2.511719-12.898438 17.363281-17.386719 39.785156-20.328125 61.441406-.886719 6.667969 3.792968 12.8125 10.453125 13.714844zm0 0"/></svg>